<svg width="279" height="225" viewBox="0 0 279 225" fill="none" xmlns="http://www.w3.org/2000/svg">
<g clip-path="url(#clip0_1_131)">
<path d="M183.582 125.973C177.696 129.499 167.21 133.916 156.494 129.377L149.567 126.442L163.448 110.901C152.371 98.703 146.243 82.8202 146.26 66.3527C146.277 49.8851 152.438 34.0148 163.54 21.8395C174.641 9.66418 189.888 2.05771 206.303 0.504793C222.718 -1.04812 239.123 3.56398 252.316 13.4409C265.51 23.3177 274.544 37.7505 277.657 53.922C280.769 70.0935 277.736 86.843 269.149 100.901C260.563 114.96 247.039 125.317 231.217 129.953C215.396 134.589 198.412 133.17 183.582 125.973ZM156.986 66.3155C156.955 73.9067 158.498 81.4221 161.516 88.389C164.535 95.3559 168.964 101.624 174.526 106.798L178.355 110.391L169.62 120.17C174.17 119.248 178.133 116.79 180.142 115.363L182.899 113.403L185.865 115.03C194.061 119.513 203.256 121.862 212.601 121.861C243.267 121.861 268.216 96.9433 268.216 66.3156C268.216 35.688 243.267 10.7705 212.601 10.7705C181.935 10.7705 156.986 35.688 156.986 66.3155Z" fill="#3F3D56"/>
<path d="M151.594 66.3156C151.594 32.6647 178.907 5.38525 212.601 5.38525C246.294 5.38525 273.608 32.6647 273.608 66.3156C273.608 99.9664 246.294 127.246 212.601 127.246C202.346 127.261 192.255 124.682 183.268 119.751C179.051 122.747 168.763 128.725 158.6 124.419L170.834 110.722C164.752 105.031 159.906 98.1532 156.597 90.5144C153.287 82.8755 151.584 74.6389 151.594 66.3156Z" fill="#FFCB45"/>
<path opacity="0.1" d="M263.215 66.4476C263.215 34.6119 238.767 8.48359 207.6 5.75692C209.377 5.60145 211.175 5.51733 212.992 5.51733C246.685 5.51733 273.999 32.7967 273.999 66.4476C273.999 100.099 246.685 127.378 212.992 127.378C211.177 127.378 209.383 127.293 207.608 127.138C238.771 124.407 263.215 98.2804 263.215 66.4476Z" fill="black"/>
<path d="M72.0164 210.619C56.7726 210.626 41.9895 205.4 30.1447 195.816C18.2998 186.233 10.1129 172.875 6.95609 157.98C3.79927 143.086 5.86433 127.56 12.8052 114.005C19.746 100.45 31.1409 89.6902 45.0801 83.5278C59.0193 77.3653 74.6558 76.1752 89.369 80.1569C104.082 84.1386 116.978 93.0501 125.895 105.398C134.813 117.746 139.209 132.78 138.349 147.98C137.488 163.18 131.423 177.623 121.169 188.889L135.05 204.429L128.123 207.364C117.407 211.904 106.921 207.486 101.035 203.961C91.9899 208.34 82.0686 210.617 72.0164 210.619ZM72.0164 88.758C41.3501 88.758 16.4012 113.675 16.4012 144.303C16.4012 174.931 41.3501 199.848 72.0164 199.848C81.3612 199.849 90.5559 197.5 98.7526 193.018L101.718 191.391L104.475 193.35C106.484 194.778 110.447 197.236 114.997 198.158L106.262 188.379L110.091 184.785C115.653 179.611 120.082 173.343 123.101 166.377C126.12 159.41 127.662 151.894 127.632 144.303C127.631 113.675 102.683 88.758 72.0164 88.758Z" fill="#3F3D56"/>
<path d="M133.024 144.303C133.024 110.652 105.71 83.3727 72.0163 83.3727C38.323 83.3727 11.0092 110.652 11.0092 144.303C11.0092 177.954 38.323 205.233 72.0163 205.233C82.2707 205.248 92.3619 202.67 101.349 197.738C105.566 200.735 115.854 206.712 126.017 202.406L113.784 188.71C119.865 183.019 124.711 176.141 128.021 168.502C131.33 160.863 133.033 152.626 133.024 144.303Z" fill="#FFCB45"/>
<path opacity="0.1" d="M21.7933 143.995C21.7933 112.16 46.2412 86.0312 77.4084 83.3045C75.6313 83.1491 73.8338 83.0649 72.0163 83.0649C38.323 83.0649 11.0092 110.344 11.0092 143.995C11.0092 177.646 38.323 204.926 72.0163 204.926C73.831 204.926 75.6255 204.84 77.3998 204.685C46.2368 201.954 21.7933 175.828 21.7933 143.995Z" fill="black"/>
<path d="M226.923 46.9581C222.931 40.222 215.034 39.9081 215.034 39.9081C215.034 39.9081 207.339 38.9253 202.402 49.1844C197.801 58.7467 191.451 67.9794 201.38 70.2179L203.174 64.6428L204.284 70.6329C205.698 70.7345 207.116 70.7587 208.533 70.7054C219.166 70.3625 229.292 70.8057 228.966 66.9949C228.533 61.9289 230.764 53.4395 226.923 46.9581Z" fill="#2F2E41"/>
<path d="M200.813 105.949C200.696 106.69 200.526 107.422 200.304 108.138C200.054 108.84 199.669 109.488 199.44 110.197C198.712 112.456 199.721 114.975 201.333 116.719C202.731 118.225 204.535 119.295 206.528 119.8C207.996 120.113 209.492 120.27 210.993 120.268C215.142 120.409 219.399 120.535 223.33 119.203C224.573 118.772 225.773 118.227 226.915 117.576C227.276 117.405 227.593 117.155 227.845 116.845C228.108 116.391 228.226 115.867 228.181 115.344C228.172 113.588 227.815 111.84 227.9 110.085C227.947 109.113 228.129 108.142 228.039 107.173C227.915 106.072 227.454 105.037 226.718 104.208C225.982 103.38 225.007 102.799 223.928 102.545C222.813 102.306 221.656 102.436 220.52 102.545C217.573 102.828 214.612 102.96 211.651 102.941C208.626 102.922 205.619 102.46 202.608 102.412C201.718 102.398 201.736 102.672 201.453 103.533C201.192 104.325 200.978 105.132 200.813 105.949Z" fill="#2F2E41"/>
<path d="M209.399 62.568C209.254 63.3283 209.097 64.1165 208.639 64.7413C208.113 65.4602 207.255 65.871 206.689 66.559C205.836 67.5945 205.787 69.0518 205.784 70.3923C205.781 71.6273 205.806 72.9445 206.495 73.9696C206.986 74.6064 207.595 75.1427 208.289 75.5492C210.875 77.2897 213.669 79.0614 216.787 79.1188C218.079 79.1426 219.464 78.8094 220.314 77.8376C220.681 77.3811 220.97 76.8669 221.168 76.316C221.965 74.3533 222.448 72.2777 222.6 70.1651C222.715 69.1719 222.622 68.1658 222.327 67.2103C221.949 66.1556 221.183 65.2878 220.677 64.2879C220.078 63.0988 219.86 61.7551 220.05 60.4379C220.075 60.3452 220.067 60.2466 220.028 60.1589C219.986 60.112 219.934 60.0753 219.876 60.0518C219.818 60.0283 219.755 60.0185 219.692 60.0232L213.51 59.5787C212.935 59.5502 212.361 59.4847 211.794 59.3826C211.461 59.3149 210.58 58.8422 210.263 58.9679C209.674 59.2006 209.52 61.9374 209.399 62.568Z" fill="#A0616A"/>
<path opacity="0.1" d="M209.399 62.7607C209.254 63.5211 209.097 64.3092 208.639 64.934C208.113 65.6529 207.255 66.0637 206.689 66.7517C205.836 67.7873 205.787 69.2445 205.784 70.5851C205.781 71.82 205.806 73.1372 206.495 74.1623C206.986 74.7991 207.595 75.3355 208.289 75.742C210.875 77.4824 213.669 79.2542 216.787 79.3116C218.079 79.3354 219.464 79.0022 220.314 78.0303C220.681 77.5738 220.97 77.0597 221.168 76.5088C221.965 74.5461 222.448 72.4704 222.6 70.3578C222.715 69.3647 222.622 68.3585 222.327 67.4031C221.949 66.3484 221.183 65.4806 220.677 64.4806C220.078 63.2915 219.86 61.9478 220.05 60.6307C220.075 60.5379 220.067 60.4393 220.028 60.3517C219.986 60.3048 219.934 60.2681 219.876 60.2446C219.818 60.221 219.755 60.2112 219.692 60.216L213.51 59.7715C212.935 59.7429 212.361 59.6774 211.794 59.5754C211.461 59.5077 210.58 59.035 210.263 59.1607C209.674 59.3934 209.52 62.1302 209.399 62.7607Z" fill="black"/>
<path d="M215.311 63.3958C220.321 63.3958 224.381 59.3402 224.381 54.3374C224.381 49.3346 220.321 45.2791 215.311 45.2791C210.302 45.2791 206.242 49.3346 206.242 54.3374C206.242 59.3402 210.302 63.3958 215.311 63.3958Z" fill="#A0616A"/>
<path d="M210.672 74.6261C211.12 75.1443 211.66 75.5753 212.265 75.8974C212.895 76.1578 213.573 76.2865 214.255 76.2759C215.89 76.3218 217.662 76.0226 218.799 74.8487C220.265 73.3355 220.217 70.8948 221.366 69.1294C221.459 68.9693 221.585 68.8313 221.737 68.7249C221.929 68.6201 222.147 68.5701 222.366 68.5803C223.818 68.5667 225.082 69.5068 226.223 70.4028C226.76 70.7719 227.221 71.2408 227.581 71.7838C227.806 72.2235 227.961 72.696 228.038 73.1839C228.605 75.9444 228.788 78.767 228.97 81.579C229.07 83.1321 229.171 84.6868 229.164 86.2432C229.139 91.3709 227.946 96.4129 226.759 101.402C226.606 102.045 226.397 102.763 225.811 103.071C225.55 103.188 225.27 103.257 224.985 103.273C221.586 103.671 218.18 104.07 214.758 104.123C213.422 104.144 212.088 104.111 210.753 104.026C210.524 104.023 210.296 103.984 210.079 103.909C209.784 103.767 209.531 103.553 209.343 103.285C207.492 100.956 207.383 97.7349 207.395 94.7611C207.424 87.4903 207.684 80.2252 208.175 72.966C208.216 72.3669 208.225 71.6392 207.792 71.1679C208.634 72.4137 209.599 73.5722 210.672 74.6261Z" fill="white"/>
<path d="M208.75 64.1669C208.444 64.7207 206.186 66.0959 205.75 66.5549C203.314 69.1194 198.867 69.0232 196.639 71.77C195.856 72.7364 195.448 73.9507 195.149 75.1579C194.725 76.8653 194.499 78.7274 195.209 80.3373C195.891 81.8864 197.329 82.9574 198.305 84.3411C199.376 85.8605 199.858 87.7053 200.32 89.5056C200.661 90.8349 201.005 92.1971 200.872 93.5629C200.721 95.1157 199.969 96.5376 199.524 98.0334C199.08 99.5291 199.003 101.311 200.03 102.486C200.785 103.35 201.969 103.692 203.1 103.885C204.549 104.102 206.01 104.229 207.475 104.265C208.768 104.322 210.194 104.333 211.188 103.505C211.973 102.852 212.314 101.792 212.358 100.772C212.402 99.7531 212.19 98.7429 212.057 97.7314C211.919 96.6829 211.866 95.6252 211.821 94.5686C211.622 89.8277 211.595 85.0837 211.74 80.3367C211.813 79.3501 211.764 78.3583 211.596 77.3834C211.318 76.1136 210.631 74.9787 210.058 73.812C208.912 71.6144 208.393 69.1446 208.557 66.6724C208.731 64.1317 209.84 62.1961 208.75 64.1669Z" fill="white"/>
<path d="M221.487 64.3595C221.953 64.8385 223.539 64.9963 224.132 65.3048C224.691 65.5624 225.273 65.7638 225.871 65.9062C228.036 66.53 230.096 67.4739 231.981 68.7067C232.373 68.9356 232.719 69.2343 233.003 69.5881C233.302 70.0736 233.494 70.6169 233.568 71.1821C233.858 72.6199 234.151 74.075 234.085 75.5403C234.016 77.0958 233.547 78.6022 233.081 80.0883L231.342 85.6407C230.044 89.7852 228.738 93.9706 228.373 98.2977C228.171 100.696 228.261 103.11 228.64 105.486C228.676 105.602 228.687 105.724 228.672 105.844C228.657 105.964 228.616 106.08 228.553 106.183C228.438 106.296 228.287 106.365 228.127 106.378C227.288 106.51 226.475 106.082 225.715 105.704C223.391 104.549 220.91 103.738 218.352 103.298C219.352 101.855 220.123 100.267 220.639 98.5893C220.932 97.5242 221.163 96.443 221.33 95.3512L222.139 90.6784C222.468 88.9705 222.7 87.2452 222.833 85.511C222.894 84.8602 222.856 84.2039 222.72 83.5645C222.534 82.956 222.286 82.3679 221.981 81.8091C220.648 79.0394 220.023 75.8787 220.547 72.8506C220.777 71.5254 221.223 70.1985 221.037 68.8665C220.858 67.5859 221.044 66.5906 220.715 65.3232C219.364 60.1194 220.609 63.4585 221.487 64.3595Z" fill="white"/>
<path d="M196.616 76.149C196.009 77.4086 194.992 78.4817 194.647 79.8367C194.512 80.4699 194.454 81.117 194.475 81.7641C194.415 82.7392 194.512 83.7176 194.761 84.6622C194.954 85.2597 195.268 85.8108 195.494 86.3966C195.81 87.2149 195.95 88.0901 195.907 88.9659C195.846 90.1793 195.433 91.3571 195.401 92.5716C195.35 94.4814 196.235 96.2768 197.098 97.9818C197.315 97.4445 197.647 96.9612 198.071 96.5655C198.495 96.1698 199 95.8714 199.551 95.6912C200.103 95.5109 200.687 95.4531 201.263 95.5218C201.839 95.5906 202.393 95.7842 202.886 96.0891C203.084 95.8467 203.177 95.5361 203.147 95.2249C203.211 93.0092 203.272 90.7935 203.332 88.5776C203.425 85.1507 203.514 81.678 202.725 78.3417C202.368 76.8353 201.814 75.3348 200.797 74.1664C200.262 73.5512 198.445 71.9307 197.566 72.6199C197.171 72.9298 197.263 73.7735 197.201 74.2007C197.106 74.876 196.909 75.533 196.616 76.149Z" fill="white"/>
<path d="M234.263 72.519C234.507 73.4274 234.612 74.3675 234.573 75.3073C234.585 77.2227 234.56 79.1379 234.497 81.0528C234.507 82.0349 234.381 83.0137 234.123 83.9616C233.927 84.578 233.624 85.1561 233.421 85.7705C232.814 87.6116 233.146 89.6085 233.198 91.5464C233.235 92.1736 233.181 92.8028 233.039 93.4148C232.718 94.6162 231.857 95.5869 231.255 96.6754C230.684 97.7093 230.34 98.8681 229.658 99.8326C228.975 100.797 227.795 101.561 226.65 101.265C225.783 101.041 225.167 100.274 224.741 99.4873C223.811 97.7572 223.493 95.7641 223.838 93.831C224.266 91.479 225.649 89.3924 226.148 87.0544C226.833 83.8438 225.792 80.5307 225.823 77.2481C225.809 76.7336 225.879 76.2201 226.03 75.728C226.291 74.9782 226.854 74.3794 227.373 73.7781C228.022 73.0266 228.624 72.2366 229.178 71.4125C229.549 70.8588 230.054 69.4349 230.713 69.3165C232.184 69.0521 233.898 71.3838 234.263 72.519Z" fill="white"/>
<path d="M188.982 104.521C188.169 104.317 187.33 104.228 186.492 104.257C185.611 104.305 184.751 104.541 183.968 104.947C183.185 105.354 182.498 105.922 181.952 106.614C181.406 107.306 181.014 108.107 180.802 108.962C180.59 109.817 180.562 110.708 180.722 111.575C180.925 112.513 181.257 113.42 181.708 114.268C182.369 115.606 183.161 116.942 184.383 117.799C185.12 118.271 185.913 118.648 186.744 118.922L193.184 121.345C194.131 121.701 195.078 122.057 196.035 122.388C200.841 124.047 205.852 125.042 210.928 125.345C212.473 125.49 214.03 125.411 215.552 125.111C215.92 125.063 216.258 124.881 216.5 124.6C216.622 124.386 216.695 124.148 216.711 123.902L217.107 121.132C217.196 120.746 217.184 120.344 217.074 119.964C216.892 119.498 216.437 119.205 216.003 118.956C211.77 116.528 206.827 115.188 203.264 111.855C202.425 111.071 201.723 109.827 200.704 109.294C199.548 108.69 198.187 108.345 196.992 107.788C194.38 106.57 191.813 105.171 188.982 104.521Z" fill="#2F2E41"/>
<path opacity="0.1" d="M195.411 108.256C197.687 108.968 207.296 113.903 208.943 115.626C208.723 115.706 201.232 111.513 201.007 111.446C198.947 110.88 196.929 110.17 194.969 109.321C194.579 109.14 192.433 108.293 192.531 107.801C192.64 107.246 195.007 108.13 195.411 108.256Z" fill="black"/>
<path d="M223.806 126.782C223.935 126.791 224.063 126.754 224.167 126.676C224.212 126.618 224.245 126.551 224.265 126.48C224.284 126.409 224.289 126.334 224.279 126.261L224.269 122.487C223.182 121.97 221.966 121.804 220.773 121.645L215.206 120.901C215.334 120.918 214.336 123.296 214.489 123.614C214.759 124.173 216.821 124.669 217.402 124.933C219.425 125.851 221.527 126.861 223.806 126.782Z" fill="#A0616A"/>
<path d="M206.339 122.474C205.288 122.641 204.115 122.789 203.434 123.606C202.571 124.642 202.938 126.187 203.35 127.471C203.375 127.637 203.433 127.795 203.521 127.938C203.609 128.081 203.724 128.205 203.861 128.303C203.997 128.4 204.152 128.469 204.316 128.506C204.479 128.543 204.649 128.546 204.814 128.516C205.773 128.577 206.793 128.625 207.63 128.155C208.01 127.905 208.375 127.633 208.724 127.343C209.342 126.932 210.021 126.622 210.736 126.424C212.05 126.011 213.403 125.733 214.773 125.593C215.313 125.569 215.848 125.475 216.364 125.313C216.622 125.23 216.857 125.089 217.051 124.901C217.245 124.712 217.393 124.482 217.484 124.227C217.678 123.541 217.279 122.842 216.896 122.24C216.455 121.453 215.882 120.746 215.203 120.15C214.166 119.346 213.653 119.963 212.608 120.478C210.63 121.453 208.517 122.126 206.339 122.474Z" fill="#A0616A"/>
<path d="M203.592 123.419L196.918 121.449C196.118 121.171 195.281 121.009 194.434 120.968C194.01 120.951 193.588 121.024 193.194 121.183C192.801 121.342 192.446 121.583 192.154 121.89C191.636 122.496 191.488 123.325 191.359 124.112L191.083 125.794C190.899 126.643 190.847 127.514 190.928 128.378C190.973 128.81 191.115 129.226 191.345 129.595C191.575 129.964 191.886 130.276 192.254 130.506C193.178 131.01 194.31 130.764 195.34 130.553C197.423 130.128 199.54 129.902 201.665 129.876C202.464 129.866 203.302 129.876 204.008 129.503C204.418 129.26 204.762 128.921 205.011 128.516C205.259 128.11 205.405 127.65 205.435 127.175C205.567 125.738 205.087 123.861 203.592 123.419Z" fill="#2F2E41"/>
<path d="M226.429 121.702C227.294 121.551 228.058 121.06 228.887 120.77C230.054 120.362 231.319 120.362 232.555 120.366C233.01 120.325 233.466 120.416 233.87 120.629C234.415 120.992 234.554 121.716 234.647 122.363L235.205 126.266C235.355 126.994 235.37 127.743 235.251 128.477C235.087 129.2 234.594 129.897 233.875 130.084C233.002 130.31 232.147 129.754 231.323 129.388C229.263 128.474 226.869 128.707 224.721 128.024C224.516 127.983 224.322 127.899 224.152 127.777C223.981 127.656 223.839 127.499 223.734 127.319C223.66 127.102 223.634 126.872 223.657 126.644C223.693 125.39 223.429 123.677 223.807 122.478C224.147 121.4 225.463 121.702 226.429 121.702Z" fill="#2F2E41"/>
<path d="M240.553 102.95C241.887 102.616 243.269 102.522 244.636 102.672C245.727 102.792 246.852 103.095 247.649 103.85C248.619 104.768 248.931 106.188 248.957 107.523C248.999 110.181 248.116 112.771 246.459 114.852C246.054 115.378 245.573 115.841 245.031 116.225C244.447 116.59 243.824 116.89 243.174 117.119L228.753 122.799C224.959 124.294 221.152 125.793 217.195 126.778C217.087 126.83 216.969 126.86 216.849 126.866C216.729 126.872 216.609 126.854 216.496 126.814C216.383 126.773 216.28 126.71 216.192 126.628C216.103 126.547 216.032 126.448 215.983 126.339C214.719 124.537 213.659 122.6 212.822 120.565C212.783 120.516 212.755 120.459 212.742 120.398C212.73 120.337 212.732 120.274 212.749 120.213C212.766 120.153 212.797 120.098 212.84 120.052C212.882 120.007 212.935 119.972 212.994 119.951L223.194 114.098C223.942 113.709 224.639 113.229 225.27 112.67C225.711 112.243 226.072 111.741 226.336 111.188C226.548 110.747 226.567 109.706 226.837 109.38C227.102 109.061 228.006 109.035 228.424 108.91C229.013 108.729 229.59 108.512 230.151 108.257C232.433 107.238 234.465 105.757 236.652 104.563C237.879 103.863 239.19 103.321 240.553 102.95Z" fill="#2F2E41"/>
<path opacity="0.1" d="M234.771 107.321C233.018 108.636 230.749 109.844 229.013 111.193C228.42 111.654 218.539 117.202 218.399 117.939C220.019 118.212 230.341 111 231.818 110.28C233.294 109.561 234.604 108.546 235.901 107.539C236.231 107.282 237.632 106.51 236.683 106.223C236.149 106.062 235.166 107.059 234.771 107.321Z" fill="black"/>
<path d="M222.713 64.4868H207.331C206.706 64.4868 206.107 64.7348 205.665 65.1761C205.223 65.6175 204.974 66.2161 204.974 66.8402V67.702H204.807V69.6293H204.974V70.9785H204.807V72.1349H204.974V86.3557C204.974 86.9798 205.223 87.5784 205.665 88.0198C206.107 88.4611 206.706 88.7091 207.331 88.7091H222.713C223.338 88.7091 223.938 88.4611 224.38 88.0198C224.821 87.5784 225.07 86.9798 225.07 86.3557V66.8402C225.07 66.2161 224.821 65.6175 224.38 65.1761C223.938 64.7348 223.338 64.4868 222.713 64.4868Z" fill="#D0CDE1"/>
<path d="M225.158 46.3089L217.356 42.2272L206.582 43.897L204.353 53.7299L209.902 53.5165L211.452 49.9042V53.4572L214.012 53.3589L215.498 47.6073L216.427 53.7299L225.53 53.5442L225.158 46.3089Z" fill="#2F2E41"/>
<path d="M198.658 101.677C199.011 102.276 199.512 102.774 200.114 103.124C200.509 103.304 200.939 103.391 201.373 103.38C201.807 103.368 202.233 103.258 202.617 103.057C203.385 102.645 204.014 102.016 204.424 101.248C205.272 99.7522 205.447 97.9628 205.342 96.2475C205.236 94.5322 204.869 92.8432 204.707 91.1323C204.589 89.8886 204.579 88.6375 204.57 87.3883C204.54 87.1256 204.596 86.8604 204.727 86.6311C204.954 86.4059 205.247 86.2597 205.564 86.214C207.275 85.7061 208.411 84.1042 209.225 82.5175C209.769 81.4581 210.242 80.2999 210.137 79.114C210.032 77.9281 209.179 76.7334 207.993 76.6124C207.015 76.5127 206.112 77.1329 205.407 77.8164C203.628 79.5516 202.485 81.8337 202.161 84.2961C202.006 85.5019 202.05 86.7405 201.722 87.9112C201.021 90.4106 198.827 91.9431 197.734 94.1922C196.529 96.6704 197.194 99.4839 198.658 101.677Z" fill="#A0616A"/>
<path d="M230.941 92.1277C230.691 92.7074 230.328 93.2313 229.873 93.6684C229.417 94.1056 228.878 94.4472 228.289 94.673C227.555 94.9672 226.747 95.0167 225.983 94.8141C225.604 94.7091 225.255 94.5184 224.962 94.2567C224.669 93.995 224.44 93.6694 224.294 93.3052C224.177 92.9383 224.113 92.5567 224.104 92.1718C223.994 90.4862 224.036 88.7493 224.649 87.1751C224.886 86.5679 225.204 85.9921 225.391 85.3678C225.574 84.6468 225.668 83.906 225.67 83.1622L225.872 78.5631C225.905 78.2293 225.882 77.8922 225.804 77.5659C225.603 76.9005 224.98 76.468 224.408 76.0712C223.029 75.1128 221.665 73.9944 220.996 72.4543C220.767 71.9906 220.684 71.4679 220.76 70.9562C220.949 70.0429 221.872 69.4517 222.784 69.2525C223.381 69.1222 223.998 69.1139 224.598 69.2281C225.198 69.3423 225.769 69.5766 226.276 69.9169C226.783 70.2573 227.215 70.6966 227.548 71.2084C227.88 71.7203 228.105 72.294 228.21 72.8951C228.3 73.4141 228.299 73.9443 228.352 74.4684C228.464 75.5802 228.817 76.6519 229.038 77.7473C229.583 80.4455 229.301 83.2346 229.839 85.9323C230.289 88.1879 231.987 89.6597 230.941 92.1277Z" fill="#A0616A"/>
<path d="M215.228 74.8331C216.294 74.8331 217.158 73.9703 217.158 72.9058C217.158 71.8414 216.294 70.9785 215.228 70.9785C214.162 70.9785 213.298 71.8414 213.298 72.9058C213.298 73.9703 214.162 74.8331 215.228 74.8331Z" fill="#FFCB45"/>
<path d="M5.69312 142.174C8.83701 142.174 11.3856 139.628 11.3856 136.489C11.3856 133.349 8.83701 130.803 5.69312 130.803C2.54923 130.803 0.000610352 133.349 0.000610352 136.489C0.000610352 139.628 2.54923 142.174 5.69312 142.174Z" fill="#2F2E41"/>
<path d="M26.3275 153.367L23.4603 150.583L17.7028 152.369L18.2558 159.027L30.094 158.478L26.4572 153.543L26.3275 153.367Z" fill="#FBBEBE"/>
<path d="M20.0566 153.309C25.1394 153.309 29.2599 149.194 29.2599 144.118C29.2599 139.041 25.1394 134.926 20.0566 134.926C14.9738 134.926 10.8534 139.041 10.8534 144.118C10.8534 149.194 14.9738 153.309 20.0566 153.309Z" fill="#FBBEBE"/>
<path d="M77.1908 165.164C77.1908 165.164 88.4971 184.57 91.1879 187.483C92.4676 188.917 93.8309 190.274 95.2707 191.547C95.2707 191.547 94.0055 195.738 91.9909 195.588C90.8425 195.519 89.7164 195.242 88.6675 194.77C88.6675 194.77 87.7682 192.442 86.1997 191.421C84.6313 190.4 71.8167 177.809 72.1163 173.785C72.4158 169.761 77.1908 165.164 77.1908 165.164Z" fill="#2F2E41"/>
<path d="M36.9255 192.857C36.9255 192.857 48.9806 202.202 65.3639 193.421L66.7758 192.383C66.7758 192.383 64.3931 197.737 64.172 199.188C63.9157 200.871 57.7123 210.729 56.7 211.201C55.6877 211.674 55.4646 212.109 55.4646 212.109L59.7605 216.832L61.3489 215.664C61.3489 215.664 67.5423 206.9 69.3538 205.297C71.1653 203.694 79.7959 187.161 79.7959 187.161C79.7959 187.161 83.0957 180.932 74.8605 180.463C66.6253 179.995 62.8359 182.236 62.8359 182.236L48.2205 184.555L36.9255 192.857Z" fill="#2F2E41"/>
<path d="M95.4105 190.629L101.508 194.843C101.508 194.843 109.287 197.277 104.495 198.897C99.7034 200.517 87.076 201.103 86.7895 198.868C86.503 196.633 87.2876 193.115 87.9175 193.307C88.5475 193.5 92.9199 194.634 95.4105 190.629Z" fill="#2F2E41"/>
<path d="M61.8885 214.217L63.017 220.406C63.017 220.406 66.2261 226.536 62.3731 224.634C58.52 222.732 50.5818 215.508 51.754 213.993C52.9262 212.479 55.5134 210.836 55.7762 211.33C56.0389 211.823 57.9835 215.128 61.8885 214.217Z" fill="#2F2E41"/>
<path d="M50.2619 186.587C50.2619 186.587 42.0672 196.143 37.092 193.821C32.1169 191.5 11.7625 164.615 14.0866 159.646C16.4108 154.677 17.19 155.735 17.19 155.735L27.6996 156.706L24.6757 151.863C24.6757 151.863 26.0876 150.826 27.433 152.282C28.7784 153.739 34.1799 157.377 36.0616 162.515C37.9433 167.654 43.4678 167.397 43.4678 167.397L50.2619 186.587Z" fill="white"/>
<path d="M83.3548 166.883L69.1496 181.943L56.4244 159.505L68.5218 144.907L83.3548 166.883Z" fill="#3F3D56"/>
<path d="M82.2825 166.72L69.4526 179.954L57.8264 159.561L68.4886 146.154L82.2825 166.72Z" fill="white"/>
<path d="M68.4536 181.368L69.1496 181.943L68.7033 182.815L48.84 188.719L48.6522 188.039L49.5558 187.106L68.4536 181.368Z" fill="#B3B3B3"/>
<path d="M69.326 181.814L48.757 188.237L36.2183 164.574L56.4244 159.505L69.326 181.814Z" fill="#D0CDE1"/>
<path d="M67.7775 178.604L66.895 179.253L57.1008 162.268L58.113 161.796L67.7775 178.604Z" fill="#3F3D56"/>
<path d="M65.7527 179.549L57.0515 182.14L47.174 164.673L55.782 162.694L65.7527 179.549Z" fill="#3F3D56"/>
<path d="M41.2399 166.589L43.0414 166.08C43.0414 166.08 53.0881 164.946 53.2347 168.099C53.3814 171.251 41.6929 169.789 41.6929 169.789L40.1344 167.674L41.2399 166.589Z" fill="#FBBEBE"/>
<path d="M50.0519 180.764L52.5593 179.736C52.5593 179.736 60.1283 176.346 57.957 174.138C55.7857 171.93 49.0893 175.765 49.0893 175.765L47.8073 176.979L50.0519 180.764Z" fill="#FBBEBE"/>
<path d="M47.8172 175.885C47.8172 175.885 51.9 179.949 50.9709 180.903C50.0419 181.858 34.8076 194.413 31.0312 190.396C27.2548 186.379 8.85546 166.208 16.0149 164.479C23.1744 162.749 25.066 166.793 25.066 166.793L34.5174 182.943L47.8172 175.885Z" fill="white"/>
<path d="M35.5921 163.54L42.2987 165.811L42.1892 170.647L35.0962 169.882L35.5921 163.54Z" fill="white"/>
<path opacity="0.2" d="M41.6369 178.389L34.411 182.613L26.1552 169.932L34.1244 180.378L41.6369 178.389Z" fill="black"/>
<path d="M16.0171 152.396C22.068 152.396 26.9733 147.497 26.9733 141.453C26.9733 135.41 22.068 130.511 16.0171 130.511C9.96612 130.511 5.06085 135.41 5.06085 141.453C5.06085 147.497 9.96612 152.396 16.0171 152.396Z" fill="#2F2E41"/>
<path d="M75.2161 167.838L67.5446 156.63L70.7966 152.609L78.7679 164.141L75.2161 167.838Z" fill="#FFCB45"/>
<path d="M74.9999 172.345L63.3207 155.387L63.8968 154.692L75.5213 171.69L74.9999 172.345Z" fill="#E6E6E6"/>
<path d="M73.495 173.994L61.8158 157.037L62.3918 156.342L74.0164 173.34L73.495 173.994Z" fill="#E6E6E6"/>
<path d="M72.2128 175.208L60.5336 158.251L61.1097 157.556L72.7342 174.554L72.2128 175.208Z" fill="#E6E6E6"/>
<path d="M20.8689 134.148H24.2582C25.9743 134.148 27.6201 134.829 28.8335 136.041C30.0469 137.253 30.7287 138.896 30.7287 140.61H20.8689V134.148Z" fill="#2F2E41"/>
<path d="M67.556 130.035L66.9416 129.99C66.9178 130.309 66.9007 130.63 66.8804 130.95L64.1225 130.858L67.0155 136.272L70.2646 131.063L67.4965 130.971C67.5163 130.659 67.5328 130.346 67.556 130.035Z" fill="#3F3D56"/>
<path d="M83.7323 85.9019L84.2222 86.2754C84.957 85.3142 85.7244 84.3547 86.5033 83.4234L86.0303 83.0288C85.2457 83.967 84.4725 84.9336 83.7323 85.9019Z" fill="#3F3D56"/>
<path d="M88.4528 80.2599L88.9077 80.6749C89.7252 79.7807 90.5741 78.8926 91.4303 78.0351L90.994 77.6006C90.1313 78.4643 89.2763 79.3591 88.4528 80.2599Z" fill="#3F3D56"/>
<path d="M93.6494 75.0556L94.0661 75.5091C94.9602 74.6891 95.8834 73.8793 96.8098 73.1018L96.4136 72.6306C95.4802 73.4137 94.5501 74.2298 93.6494 75.0556Z" fill="#3F3D56"/>
<path d="M79.5262 91.9397L80.0471 92.2685C80.6948 91.2451 81.3749 90.2214 82.0685 89.2256L81.5627 88.874C80.8639 89.8773 80.1787 90.9087 79.5262 91.9397Z" fill="#3F3D56"/>
<path d="M99.2812 70.3295L99.6565 70.8176C100.619 70.0792 101.61 69.3538 102.601 68.6614L102.247 68.1571C101.249 68.8548 100.251 69.5856 99.2812 70.3295Z" fill="#3F3D56"/>
<path d="M75.8696 98.3277L76.4176 98.609C76.9727 97.5308 77.5598 96.4504 78.1623 95.3981L77.6273 95.0925C77.0202 96.1528 76.4288 97.2412 75.8696 98.3277Z" fill="#3F3D56"/>
<path d="M69.9257 115.651L69.329 115.498C69.0245 116.679 68.7426 117.883 68.491 119.077L69.094 119.204C69.3438 118.019 69.6236 116.823 69.9257 115.651Z" fill="#3F3D56"/>
<path d="M105.305 66.1182L105.636 66.6374C106.658 65.9883 107.708 65.3532 108.757 64.7496L108.45 64.2162C107.392 64.8244 106.334 65.4642 105.305 66.1182Z" fill="#3F3D56"/>
<path d="M68.4214 122.79L67.8133 122.691C67.6155 123.892 67.4417 125.116 67.2968 126.33L67.9088 126.402C68.0525 125.198 68.2251 123.983 68.4214 122.79Z" fill="#3F3D56"/>
<path d="M72.7937 105.018L73.3645 105.25C73.8214 104.127 74.3102 102.998 74.8172 101.895L74.2573 101.638C73.7464 102.749 73.2539 103.887 72.7937 105.018Z" fill="#3F3D56"/>
<path d="M70.3254 111.96L70.9149 112.14C71.2702 110.978 71.6564 109.81 72.0628 108.667L71.4821 108.461C71.0727 109.612 70.6835 110.79 70.3254 111.96Z" fill="#3F3D56"/>
<path d="M146.991 53.851C148.199 53.8093 149.429 53.7926 150.646 53.804L150.651 53.1886C149.426 53.1771 148.186 53.1938 146.97 53.2359L146.991 53.851Z" fill="#3F3D56"/>
<path d="M111.675 62.4557L111.958 63.0021C113.035 62.4452 114.136 61.9056 115.233 61.3982L114.974 60.8398C113.869 61.351 112.759 61.8947 111.675 62.4557Z" fill="#3F3D56"/>
<path d="M161.573 54.6185C162.775 54.7884 163.988 54.9874 165.178 55.2099L165.292 54.605C164.092 54.3808 162.87 54.1802 161.659 54.009L161.573 54.6185Z" fill="#3F3D56"/>
<path d="M168.755 55.9606C169.935 56.2358 171.126 56.5418 172.294 56.8698L172.461 56.2772C171.284 55.9467 170.084 55.6387 168.895 55.3613L168.755 55.9606Z" fill="#3F3D56"/>
<path d="M175.788 57.9356C176.939 58.3147 178.098 58.7252 179.232 59.1558L179.451 58.5806C178.308 58.1467 177.141 57.733 175.981 57.3511L175.788 57.9356Z" fill="#3F3D56"/>
<path d="M154.299 53.9158C155.512 53.9794 156.739 54.0707 157.944 54.187L158.003 53.5746C156.789 53.4572 155.554 53.3653 154.331 53.3013L154.299 53.9158Z" fill="#3F3D56"/>
<path d="M139.634 53.8118L139.709 54.4227C140.91 54.2752 142.133 54.1521 143.343 54.0571L143.295 53.4435C142.075 53.5392 140.843 53.6632 139.634 53.8118Z" fill="#3F3D56"/>
<path d="M125.258 56.8908L125.44 57.4786C126.598 57.1205 127.78 56.7837 128.953 56.4773L128.797 55.882C127.615 56.1904 126.424 56.5299 125.258 56.8908Z" fill="#3F3D56"/>
<path d="M118.34 59.3723L118.574 59.9418C119.694 59.4826 120.839 59.0431 121.976 58.6351L121.767 58.056C120.622 58.4668 119.469 58.9098 118.34 59.3723Z" fill="#3F3D56"/>
<path d="M132.377 55.0315L132.506 55.6334C133.69 55.38 134.897 55.1493 136.094 54.9481L135.992 54.3411C134.786 54.5439 133.57 54.7762 132.377 55.0315Z" fill="#3F3D56"/>
<path d="M188.427 62.961L184.983 57.8783L183.772 60.3676C183.479 60.2369 183.188 60.1034 182.895 59.9767L182.65 60.5417C182.936 60.6653 183.219 60.7949 183.503 60.9215L182.298 63.399L188.427 62.961Z" fill="#3F3D56"/>
</g>
<defs>
<clipPath id="clip0_1_131">
<rect width="279" height="225" fill="white"/>
</clipPath>
</defs>
</svg>
